<svg width="24" height="24" viewBox="0 0 24 24" fill="none" xmlns="http://www.w3.org/2000/svg">
<path fill-rule="evenodd" clip-rule="evenodd" d="M4.69 6.54993L2.01001 3.87L3.41998 2.44995L21.15 20.1899L19.74 21.6L16.32 18.1799C14.98 18.71 13.52 19 12 19C7 19 2.72998 15.8899 1 11.5C1.77002 9.52991 3.06 7.82996 4.69 6.54993ZM12.12 13.98L9.51001 11.37C9.51001 11.3949 9.50751 11.4149 9.505 11.4349C9.5025 11.455 9.5 11.475 9.5 11.5C9.5 12.88 10.62 14 12 14C12.04 14 12.08 13.99 12.12 13.98ZM7.85999 9.71997L6.10999 7.96997C4.90002 8.88989 3.88 10.0699 3.17999 11.5C4.83002 14.87 8.21002 17 12 17C12.95 17 13.87 16.86 14.75 16.62L13.77 15.6399C13.23 15.87 12.63 16 12 16C9.52002 16 7.5 13.98 7.5 11.5C7.5 10.87 7.63 10.2699 7.85999 9.71997ZM12 6C15.79 6 19.17 8.13 20.82 11.5C20.23 12.72 19.4 13.77 18.41 14.62L19.82 16.03C21.21 14.8 22.31 13.26 23 11.5C21.27 7.10999 17 4 12 4C10.73 4 9.51001 4.19995 8.35999 4.56995L10.01 6.21997C10.66 6.08997 11.32 6 12 6ZM10.93 7.14001L13 9.20996C13.57 9.45996 14.03 9.92004 14.28 10.49L16.35 12.5601C16.43 12.22 16.49 11.86 16.49 11.49C16.5 9.01001 14.48 7 12 7C11.63 7 11.28 7.05005 10.93 7.14001Z" fill="black"/>
</svg>
